<?xml version="1.0" standalone="no"?>
<svg width="64" height="64" viewBox="0 0 384 384" version="1.1" xmlns="http://www.w3.org/2000/svg">
  <path d="M354 288c18 0 30 -13 30 -31v-176c0 -18 -12 -33 -30 -33h-320c-18 0 -34 15 -34 33v176c0 18 16 31 34 31h13v16h34v-16h13c32 36 43 48 55 48h88c12 0 23 -12 55 -48h62zM368 81v176c0 9 -5 15 -14 15h-62h-7l-5 3c-3 4 -7 8 -10 11c-12 13 -20 24 -26 30 c-5 5 -7 4 -7 4h-88s-2 0 -7 -4c-6 -5 -14 -14 -25 -27c-3 -4 -7 -10 -11 -14l-5 -3h-7h-60c-9 0 -18 -7 -18 -15v-176c0 -9 9 -17 18 -17h320c8 0 14 8 14 17zM192 258c47 0 86 -38 86 -85s-39 -85 -86 -85s-86 38 -86 85s39 85 86 85zM192 104c38 0 70 31 70 69 s-32 69 -70 69s-70 -31 -70 -69s32 -69 70 -69zM288 239v17h17v-17h-17zM160 173c0 21 11 32 32 32s32 -11 32 -32s-11 -32 -32 -32s-32 11 -32 32z" transform="matrix(1,0,0,-1,0,384)"/>
</svg>