<?xml version="1.0" standalone="no"?>
<svg width="64" height="64" viewBox="0 0 512 384" version="1.1" xmlns="http://www.w3.org/2000/svg">
  <path d="M224 416c124 0 224 -100 224 -224s-100 -224 -224 -224s-224 100 -224 224s100 224 224 224zM71 195c3 -2 6 -3 10 -3c5 0 11 2 14 6s7 10 17 10s14 -6 17 -10s9 -6 14 -6c4 0 7 1 10 3c8 5 9 15 4 22c-10 14 -24 23 -45 23s-33 -9 -44 -23c-6 -7 -5 -16 3 -22zM362 137 c4 8 1 17 -7 21c-2 1 -4 2 -7 2c-6 0 -11 -3 -14 -8c-18 -35 -61 -56 -110 -56c-50 0 -94 21 -110 55c-3 6 -8 9 -14 9c-2 0 -5 0 -7 -1c-8 -4 -12 -13 -8 -21c21 -45 77 -74 139 -74c60 0 114 27 138 73zM377 195c8 5 9 15 4 22c-10 14 -24 23 -45 23s-33 -9 -44 -23 c-6 -7 -5 -16 3 -22c3 -2 6 -3 10 -3c5 0 11 2 14 6s7 10 17 10s14 -6 17 -10s9 -6 14 -6c4 0 7 1 10 3z" transform="matrix(1,0,0,-1,0,384)"/>
</svg>