<?xml version="1.0" standalone="no"?>
<svg width="64" height="64" viewBox="0 0 512 384" version="1.1" xmlns="http://www.w3.org/2000/svg">
  <path d="M355 158c8 -4 11 -13 7 -21c-24 -46 -78 -73 -138 -73c-62 0 -118 29 -139 74c-4 8 0 17 8 21c2 1 5 1 7 1c6 0 11 -3 14 -9c16 -34 60 -55 110 -55c49 0 92 21 110 56c3 5 8 8 14 8c3 0 5 -1 7 -2zM381 217c5 -7 4 -17 -4 -22c-3 -2 -6 -3 -10 -3c-5 0 -11 2 -14 6 s-7 10 -17 10s-14 -6 -17 -10s-9 -6 -14 -6c-4 0 -7 1 -10 3c-8 6 -9 15 -3 22c11 14 23 23 44 23s35 -9 45 -23zM157 217c5 -7 4 -17 -4 -22c-3 -2 -6 -3 -10 -3c-5 0 -11 2 -14 6s-7 10 -17 10s-14 -6 -17 -10s-9 -6 -14 -6c-4 0 -7 1 -10 3c-8 6 -9 15 -3 22 c11 14 23 23 44 23s35 -9 45 -23zM224 416c124 0 224 -100 224 -224s-100 -224 -224 -224s-224 100 -224 224s100 224 224 224zM360 56c36 36 56 85 56 136s-20 100 -56 136s-85 56 -136 56s-100 -20 -136 -56s-56 -85 -56 -136s20 -100 56 -136s85 -56 136 -56 s100 20 136 56z" transform="matrix(1,0,0,-1,0,384)"/>
</svg>